<?xml version="1.0" encoding="UTF-8" standalone="no"?>
<!-- Created with Inkscape (http://www.inkscape.org/) -->

<svg
   width="60.472446"
   height="60.472443"
   viewBox="0 0 16.000002 16"
   version="1.1"
   id="svg5"
   inkscape:export-filename="logo.svg"
   inkscape:export-xdpi="6.2122626"
   inkscape:export-ydpi="6.2122626"
   sodipodi:docname="logo.svg"
   inkscape:version="1.2.2 (732a01da63, 2022-12-09)"
   xmlns:inkscape="http://www.inkscape.org/namespaces/inkscape"
   xmlns:sodipodi="http://sodipodi.sourceforge.net/DTD/sodipodi-0.dtd"
   xmlns="http://www.w3.org/2000/svg"
   xmlns:svg="http://www.w3.org/2000/svg">
  <sodipodi:namedview
     id="namedview7"
     pagecolor="#ffffff"
     bordercolor="#000000"
     borderopacity="0"
     inkscape:showpageshadow="2"
     inkscape:pageopacity="0"
     inkscape:pagecheckerboard="0"
     inkscape:deskcolor="#ffffff"
     inkscape:document-units="mm"
     showgrid="false"
     showguides="true"
     inkscape:zoom="0.5"
     inkscape:cx="150"
     inkscape:cy="246"
     inkscape:window-width="1366"
     inkscape:window-height="697"
     inkscape:window-x="-8"
     inkscape:window-y="-8"
     inkscape:window-maximized="1"
     inkscape:current-layer="layer1"
     showborder="false" />
  <defs
     id="defs2" />
  <g
     inkscape:label="Layer 1"
     inkscape:groupmode="layer"
     id="layer1"
     transform="translate(88.283986,846.97079)">
    <g
       id="g1676"
       transform="matrix(0.0902168,0,0,0.0902168,-79.972499,-851.9497)">
      <circle
         style="opacity:1;fill:#0066ff;stroke:none;stroke-width:2.59032;stroke-linecap:square"
         id="path586"
         cx="-3.4526255"
         cy="143.86328"
         r="88.675278" />
      <path
         id="path523"
         style="opacity:1;fill:#f9f9f9;stroke-width:0.841015;stroke-linecap:square;stroke-dasharray:5.04606, 1.68203"
         d="m -29.264557,122.50698 -8.93175,18.52238 -23.4518,48.62856 -1.21957,2.52904 c -0.0163,0.058 -0.032,0.11621 -0.047,0.17467 -0.0167,0.0649 -0.0324,0.12986 -0.0475,0.19534 -0.0151,0.0655 -0.0299,0.13133 -0.0434,0.1974 -0.0135,0.0661 -0.0258,0.13231 -0.0377,0.19896 -0.0119,0.0666 -0.0233,0.13331 -0.0336,0.2005 -0.0103,0.0672 -0.0198,0.13485 -0.0284,0.20257 -0.009,0.0677 -0.0163,0.13589 -0.0232,0.20412 -0.007,0.0682 -0.0129,0.13644 -0.0181,0.20516 -0.005,0.0687 -0.01,0.13804 -0.0134,0.20722 -0.004,0.0692 -0.006,0.13863 -0.008,0.20826 -0.002,0.0696 -0.003,0.13923 -0.003,0.20929 0,0.0701 8.2e-4,0.13966 0.003,0.20929 0.002,0.0696 0.004,0.13907 0.008,0.20825 0.004,0.0692 0.008,0.13851 0.0134,0.20723 0.005,0.0687 0.0111,0.13692 0.0181,0.20515 0.007,0.0682 0.0146,0.1364 0.0232,0.20412 0.009,0.0677 0.0181,0.13487 0.0284,0.20206 0.0103,0.0672 0.0217,0.13438 0.0336,0.20102 0.0119,0.0666 0.0242,0.13289 0.0377,0.19895 0.0135,0.0661 0.0283,0.13194 0.0434,0.19741 0.0151,0.0655 0.0308,0.13048 0.0475,0.19533 0.0167,0.0649 0.0339,0.12958 0.0522,0.19379 0.0182,0.0642 0.0376,0.12816 0.0574,0.19172 0.0198,0.0636 0.0402,0.12678 0.0615,0.18965 0.0213,0.0629 0.0434,0.12541 0.0661,0.18759 0.0228,0.0622 0.0465,0.12406 0.0708,0.18552 0.0242,0.0615 0.0492,0.12222 0.0749,0.18293 0.0257,0.0607 0.052,0.12144 0.0791,0.18139 0.0271,0.0599 0.0547,0.11912 0.0832,0.17828 0.0285,0.0592 0.0579,0.11786 0.0879,0.17622 0.0299,0.0583 0.0607,0.11662 0.092,0.17415 0.0313,0.0575 0.063,0.11437 0.0956,0.17105 0.0326,0.0567 0.0658,0.11318 0.0997,0.16898 0.0339,0.0558 0.0686,0.11097 0.10387,0.16588 0.0352,0.0549 0.071,0.1093 0.10748,0.1633 0.0365,0.054 0.0739,0.10765 0.11162,0.16071 0.0377,0.0531 0.0757,0.10551 0.11473,0.15761 0.039,0.0521 0.0787,0.10391 0.11885,0.15503 0.0402,0.0511 0.0811,0.1018 0.12247,0.15193 0.0414,0.0501 0.0835,0.0997 0.1261,0.14883 0.0426,0.0491 0.0855,0.0977 0.12919,0.14573 0.0437,0.0481 0.088,0.0956 0.1328,0.14262 0.0448,0.047 0.09,0.0936 0.13591,0.13953 0.0459,0.0459 0.0925,0.0911 0.13953,0.13591 0.047,0.0448 0.0945,0.0891 0.14263,0.13281 0.0481,0.0437 0.0966,0.0866 0.14572,0.12919 0.0491,0.0425 0.0992,0.0847 0.14935,0.12609 0.0501,0.0414 0.10079,0.0818 0.15193,0.12196 0.0511,0.0402 0.10239,0.0799 0.15451,0.11885 0.0521,0.039 0.10506,0.0775 0.15813,0.11524 0.0531,0.0377 0.1067,0.0746 0.16071,0.1111 0.054,0.0365 0.10838,0.0723 0.1633,0.10749 0.0549,0.0352 0.11007,0.07 0.16588,0.10387 0.0558,0.0339 0.1123,0.0671 0.16899,0.0997 0.0567,0.0326 0.11351,0.0643 0.17104,0.0956 0.0575,0.0312 0.11579,0.0621 0.17415,0.092 0.0584,0.0299 0.11705,0.0588 0.17622,0.0873 0.0592,0.0285 0.11884,0.0566 0.1788,0.0837 0.06,0.0271 0.12015,0.0534 0.18087,0.0791 0.0607,0.0257 0.12198,0.0507 0.18345,0.0749 0.0615,0.0242 0.12333,0.0475 0.18552,0.0703 0.0622,0.0228 0.12469,0.0449 0.18758,0.0661 0.0629,0.0213 0.12609,0.0422 0.18966,0.062 0.0636,0.0198 0.12749,0.0386 0.19172,0.0568 0.0642,0.0182 0.12892,0.0355 0.19378,0.0522 0.0649,0.0167 0.12986,0.0329 0.19534,0.0481 0.0655,0.0151 0.13133,0.0294 0.1974,0.0429 0.0661,0.0135 0.13231,0.0263 0.19896,0.0382 0.0666,0.0119 0.13331,0.0228 0.2005,0.0331 0.0672,0.0103 0.13485,0.0198 0.20257,0.0284 0.0677,0.009 0.13589,0.0163 0.20413,0.0232 0.0682,0.007 0.13643,0.0129 0.20515,0.0181 0.0687,0.005 0.13804,0.01 0.20722,0.0134 0.0692,0.004 0.13863,0.006 0.20826,0.008 0.0696,0.002 0.13923,0.003 0.20929,0.003 0.07,0 0.14017,-8.2e-4 0.20981,-0.003 0.0696,-0.002 0.13855,-0.004 0.20773,-0.008 0.0692,-0.003 0.13851,-0.008 0.20723,-0.0134 0.0687,-0.005 0.13692,-0.0112 0.20515,-0.0181 0.0682,-0.007 0.1364,-0.0146 0.20412,-0.0232 0.0677,-0.009 0.13538,-0.0182 0.20258,-0.0284 0.0672,-0.0103 0.13386,-0.0212 0.2005,-0.0331 0.0666,-0.0119 0.13289,-0.0247 0.19895,-0.0382 0.0661,-0.0135 0.13193,-0.0278 0.19741,-0.0429 0.0655,-0.0151 0.13048,-0.0314 0.19534,-0.0481 0.0649,-0.0167 0.12956,-0.034 0.19378,-0.0522 0.0642,-0.0182 0.12816,-0.0371 0.19172,-0.0568 0.0636,-0.0198 0.12677,-0.0407 0.18965,-0.062 0.0629,-0.0213 0.1254,-0.0434 0.18759,-0.0661 0.0622,-0.0228 0.12406,-0.0461 0.18552,-0.0703 0.0615,-0.0242 0.12273,-0.0493 0.18345,-0.0749 0.0607,-0.0257 0.12091,-0.052 0.18087,-0.0791 0.0599,-0.0271 0.11963,-0.0552 0.1788,-0.0837 0.0592,-0.0285 0.11785,-0.0574 0.17621,-0.0873 0.0584,-0.0299 0.1161,-0.0607 0.17364,-0.092 0.0575,-0.0312 0.11488,-0.063 0.17156,-0.0956 0.0567,-0.0326 0.11317,-0.0658 0.16898,-0.0997 0.0558,-0.0339 0.11097,-0.0687 0.16589,-0.10387 0.0549,-0.0352 0.10929,-0.071 0.16329,-0.10749 0.054,-0.0365 0.10765,-0.0734 0.16072,-0.1111 0.0531,-0.0377 0.1055,-0.0763 0.15761,-0.11524 0.0521,-0.039 0.10389,-0.0787 0.15503,-0.11885 0.0511,-0.0402 0.10179,-0.0806 0.15193,-0.12196 0.0501,-0.0414 0.0997,-0.0836 0.14883,-0.12609 0.0491,-0.0425 0.0977,-0.0855 0.14572,-0.12919 0.0481,-0.0437 0.0956,-0.088 0.14263,-0.13281 0.047,-0.0448 0.0936,-0.09 0.13953,-0.13591 0.0459,-0.0459 0.0916,-0.0925 0.13642,-0.13953 0.0448,-0.047 0.0891,-0.0946 0.13281,-0.14262 0.0437,-0.0481 0.0866,-0.0966 0.12919,-0.14573 0.0426,-0.0491 0.0847,-0.0987 0.12609,-0.14883 0.0414,-0.0501 0.0818,-0.1008 0.12196,-0.15193 0.0402,-0.0511 0.0799,-0.10292 0.11886,-0.15503 0.039,-0.0521 0.0775,-0.10455 0.11523,-0.15761 0.0378,-0.0531 0.0746,-0.10672 0.11111,-0.16071 0.0365,-0.054 0.0728,-0.10839 0.108,-0.1633 0.0352,-0.0549 0.0694,-0.11008 0.10335,-0.16588 0.0149,-0.0246 0.0293,-0.0497 0.0439,-0.0744 l 0.60616,-1.25728 18.18959,-37.71708 13.92887,18.2764 H 8.430296 l 13.92887,-18.2764 18.79575,38.97436 c 0.0147,0.0248 0.029,0.0498 0.0439,0.0744 0.0339,0.0558 0.0681,0.11097 0.10335,0.16588 0.0352,0.0549 0.0715,0.1093 0.108,0.1633 0.0365,0.054 0.0734,0.10765 0.11111,0.16071 0.0378,0.0531 0.0763,0.10551 0.11524,0.15761 0.039,0.0521 0.0787,0.10391 0.11885,0.15503 0.0402,0.0511 0.0806,0.1018 0.12196,0.15193 0.0414,0.0501 0.0835,0.0997 0.12609,0.14883 0.0426,0.0491 0.0855,0.0977 0.12919,0.14573 0.0437,0.0481 0.088,0.0956 0.13281,0.14262 0.0448,0.047 0.0905,0.0936 0.13642,0.13953 0.0459,0.0459 0.0925,0.0911 0.13953,0.13591 0.047,0.0448 0.0945,0.0891 0.14263,0.13281 0.0481,0.0437 0.0966,0.0866 0.14573,0.12919 0.0491,0.0425 0.0987,0.0847 0.14882,0.12609 0.0501,0.0414 0.10079,0.0818 0.15193,0.12196 0.0511,0.0402 0.10292,0.0799 0.15503,0.11885 0.0521,0.039 0.10454,0.0775 0.15761,0.11524 0.0531,0.0377 0.10671,0.0746 0.16072,0.1111 0.054,0.0365 0.10838,0.0723 0.1633,0.10749 0.0549,0.0352 0.11006,0.07 0.16588,0.10387 0.0558,0.0339 0.1123,0.0671 0.16898,0.0997 0.0567,0.0326 0.11404,0.0643 0.17157,0.0956 0.0575,0.0312 0.11527,0.0621 0.17363,0.092 0.0584,0.0299 0.11705,0.0588 0.17621,0.0873 0.0592,0.0285 0.11886,0.0566 0.17881,0.0837 0.06,0.0271 0.12014,0.0534 0.18086,0.0791 0.0607,0.0257 0.12199,0.0507 0.18345,0.0749 0.0615,0.0242 0.12334,0.0475 0.18552,0.0703 0.0622,0.0228 0.1247,0.0449 0.18759,0.0661 0.0629,0.0213 0.12609,0.0422 0.18965,0.062 0.0636,0.0198 0.1275,0.0386 0.19172,0.0568 0.0642,0.0182 0.12893,0.0355 0.19379,0.0522 0.0649,0.0167 0.12986,0.0329 0.19533,0.0481 0.0655,0.0151 0.13134,0.0294 0.19741,0.0429 0.0661,0.0135 0.13231,0.0263 0.19895,0.0382 0.0666,0.0119 0.13331,0.0228 0.20051,0.0331 0.0672,0.0103 0.13484,0.0198 0.20257,0.0284 0.0677,0.009 0.13589,0.0164 0.20412,0.0232 0.0682,0.007 0.13644,0.0129 0.20516,0.0181 0.0687,0.005 0.13803,0.01 0.20722,0.0134 0.0692,0.004 0.1381,0.006 0.20774,0.008 0.0696,0.002 0.13975,0.003 0.2098,0.003 0.0701,0 0.13966,-9.2e-4 0.20929,-0.003 0.0696,-0.002 0.13907,-0.004 0.20826,-0.008 0.0692,-0.003 0.1385,-0.008 0.20722,-0.0134 0.0687,-0.005 0.13692,-0.0112 0.20516,-0.0181 0.0682,-0.007 0.13639,-0.0146 0.20412,-0.0232 0.0677,-0.009 0.13538,-0.0182 0.20257,-0.0284 0.0672,-0.0103 0.13386,-0.0212 0.2005,-0.0331 0.0666,-0.0119 0.13289,-0.0247 0.19896,-0.0382 0.0661,-0.0135 0.13193,-0.0278 0.1974,-0.0429 0.0655,-0.0151 0.13048,-0.0314 0.19534,-0.0481 0.0649,-0.0167 0.12956,-0.034 0.19379,-0.0522 0.0642,-0.0182 0.12815,-0.0371 0.19172,-0.0568 0.0636,-0.0198 0.12676,-0.0407 0.18965,-0.062 0.0629,-0.0213 0.1254,-0.0434 0.18758,-0.0661 0.0622,-0.0228 0.12406,-0.0461 0.18552,-0.0703 0.0615,-0.0242 0.12273,-0.0493 0.18345,-0.0749 0.0607,-0.0257 0.12091,-0.052 0.18087,-0.0791 0.06,-0.0271 0.11963,-0.0552 0.1788,-0.0837 0.0592,-0.0285 0.11785,-0.0574 0.17622,-0.0873 0.0584,-0.0299 0.11661,-0.0607 0.17415,-0.092 0.0575,-0.0312 0.11436,-0.063 0.17105,-0.0956 0.0567,-0.0326 0.11316,-0.0658 0.16898,-0.0997 0.0558,-0.0339 0.11096,-0.0687 0.16588,-0.10387 0.0549,-0.0352 0.10929,-0.071 0.1633,-0.10749 0.054,-0.0365 0.10764,-0.0734 0.16071,-0.1111 0.0531,-0.0377 0.10601,-0.0763 0.15813,-0.11524 0.0521,-0.039 0.10337,-0.0787 0.15451,-0.11885 0.0511,-0.0402 0.10179,-0.0806 0.15193,-0.12196 0.0501,-0.0414 0.10022,-0.0836 0.14935,-0.12609 0.0491,-0.0425 0.0976,-0.0855 0.14572,-0.12919 0.0481,-0.0437 0.0956,-0.088 0.14263,-0.13281 0.047,-0.0448 0.0936,-0.09 0.13953,-0.13591 0.0459,-0.0459 0.0911,-0.0925 0.13591,-0.13953 0.0448,-0.047 0.0891,-0.0946 0.13281,-0.14262 0.0437,-0.0481 0.0866,-0.0966 0.12919,-0.14573 0.0426,-0.0491 0.0847,-0.0987 0.12609,-0.14883 0.0414,-0.0501 0.0823,-0.1008 0.12247,-0.15193 0.0402,-0.0511 0.0799,-0.10292 0.11886,-0.15503 0.039,-0.0521 0.077,-0.10455 0.11472,-0.15761 0.0377,-0.0531 0.0751,-0.10672 0.11162,-0.16071 0.0365,-0.054 0.0723,-0.10839 0.10749,-0.1633 0.0352,-0.0549 0.07,-0.11008 0.10387,-0.16588 0.0339,-0.0558 0.0671,-0.11233 0.0997,-0.16898 0.0326,-0.0567 0.0643,-0.11353 0.0956,-0.17105 0.0313,-0.0575 0.0621,-0.1158 0.092,-0.17415 0.0299,-0.0584 0.0593,-0.11706 0.0879,-0.17622 0.0285,-0.0592 0.0561,-0.11834 0.0832,-0.17828 0.0271,-0.06 0.0534,-0.12068 0.0791,-0.18139 0.0257,-0.0607 0.0507,-0.12148 0.0749,-0.18293 0.0242,-0.0615 0.048,-0.12335 0.0708,-0.18552 0.0228,-0.0622 0.0448,-0.12471 0.0661,-0.18759 0.0213,-0.0629 0.0417,-0.12609 0.0615,-0.18965 0.0198,-0.0636 0.0391,-0.1275 0.0574,-0.19172 0.0182,-0.0642 0.0355,-0.12893 0.0522,-0.19379 0.0167,-0.0649 0.0324,-0.12986 0.0476,-0.19533 0.0151,-0.0655 0.0299,-0.13134 0.0434,-0.19741 0.0135,-0.0661 0.0258,-0.13231 0.0377,-0.19895 0.0119,-0.0666 0.0233,-0.13383 0.0336,-0.20102 0.0103,-0.0672 0.0198,-0.13434 0.0284,-0.20206 0.009,-0.0677 0.0163,-0.13589 0.0232,-0.20412 0.007,-0.0682 0.0129,-0.13644 0.0181,-0.20515 0.005,-0.0687 0.01,-0.13804 0.0134,-0.20723 0.004,-0.0692 0.006,-0.13862 0.008,-0.20825 0.002,-0.0696 0.003,-0.13924 0.003,-0.20929 0,-0.0701 -4.1e-4,-0.13966 -0.003,-0.20929 -0.002,-0.0696 -0.004,-0.13907 -0.008,-0.20826 -0.004,-0.0692 -0.008,-0.1385 -0.0134,-0.20722 -0.005,-0.0687 -0.0111,-0.13692 -0.0181,-0.20516 -0.007,-0.0682 -0.0146,-0.13639 -0.0232,-0.20412 -0.009,-0.0677 -0.0181,-0.13538 -0.0284,-0.20257 -0.0103,-0.0672 -0.0217,-0.13386 -0.0336,-0.2005 -0.0119,-0.0666 -0.0242,-0.13289 -0.0377,-0.19896 -0.0135,-0.0661 -0.0283,-0.13193 -0.0434,-0.1974 -0.0151,-0.0655 -0.0309,-0.13048 -0.0476,-0.19534 -0.0151,-0.0585 -0.0307,-0.11672 -0.047,-0.17467 l -24.67136,-51.1576 -8.93176,-18.52238 c 0,0 -5.45744,12.56164 -8.93279,18.52238 -4.94493,8.48144 -6.21576,24.39593 -16.879071,24.39593 -10.663312,0 -11.934102,-15.91449 -16.879072,-24.39593 -3.47531,-5.96074 -8.93282,-18.52238 -8.93279,-18.52238 z" />
      <path
         id="path870"
         style="opacity:1;fill:#f9f9f9;fill-opacity:1;stroke-width:0.872874;stroke-linecap:square;stroke-dasharray:5.23722, 1.74575"
         d="m 8.430056,85.21625 h -23.766423 l -13.928787,31.11168 8.932873,19.9516 16.87912,-37.702156 16.879117,37.702156 8.93288,-19.9516 z" />
    </g>
  </g>
</svg>
